<?xml version="1.0" standalone="no"?><svg xmlns:xlink="http://www.w3.org/1999/xlink" xmlns="http://www.w3.org/2000/svg" viewBox="0 0 1000 249.9990972936865" preserveAspectRatio="xMaxYMax slice"><g transform="scale(0.9027063135279568)"><rect x="0" y="0" width="1107.78" height="276.945" fill="#ffffff"/><rect x="0" y="0" width="92.32" height="92.32" fill="#778eed"/><polygon points="0,0 92.32,92.32 0,92.32" fill="#b7c3f6"/><rect x="92.315" y="0" width="92.315" height="92.315" fill="#ffffff"/><rect x="92.32" y="0" width="46.16" height="46.16" fill="#bbefdf"/><polygon points="92.32,0 138.48,46.16 92.32,46.16" fill="#97e6cd"/><rect x="138.47" y="0" width="46.16" height="46.16" fill="#5a76ea"/><polygon points="138.47,0 184.63,0 184.63,46.16" fill="#c6cff8"/><rect x="92.32" y="46.16" width="46.16" height="46.16" fill="#37d09f"/><polygon points="92.32,46.16 138.48,46.16 92.32,92.32" fill="#45d3a6"/><rect x="138.47" y="46.16" width="46.16" height="46.16" fill="#5ed9b2"/><polygon points="138.47,46.16 184.63,46.16 184.63,92.32" fill="#7ce0c0"/><rect x="184.63" y="0" width="92.32" height="92.32" fill="#8ae3c7"/><polygon points="184.63,0 276.95,92.32 184.63,92.32" fill="#f4fdfa"/><rect x="276.945" y="0" width="92.315" height="92.315" fill="#ffffff"/><rect x="276.95" y="0" width="46.16" height="46.16" fill="#abbaf4"/><polygon points="276.95,0 323.11,46.16 276.95,46.16" fill="#ecfaf6"/><rect x="323.1" y="0" width="46.16" height="46.16" fill="#35cf9e"/><polygon points="323.1,0 369.26,46.16 323.1,46.16" fill="#a2e9d3"/><rect x="276.95" y="46.16" width="46.16" height="46.16" fill="#c6cff8"/><polygon points="323.11,46.16 323.11,92.32 276.95,92.32" fill="#61dab3"/><rect x="323.1" y="46.16" width="46.16" height="46.16" fill="#3fd1a3"/><polygon points="323.1,46.16 369.26,92.32 323.1,92.32" fill="#44d3a5"/><rect x="369.26" y="0" width="92.315" height="92.315" fill="#ffffff"/><rect x="369.26" y="0" width="46.16" height="46.16" fill="#6f87ec"/><polygon points="369.26,0 415.41999999999996,0 369.26,46.16" fill="#67dbb6"/><rect x="415.42" y="0" width="46.16" height="46.16" fill="#b3c0f5"/><polygon points="415.42,0 461.58000000000004,0 415.42,46.16" fill="#7189ec"/><rect x="369.26" y="46.16" width="46.16" height="46.16" fill="#8297ef"/><polygon points="369.26,46.16 415.41999999999996,46.16 369.26,92.32" fill="#cfd7f9"/><rect x="415.42" y="46.16" width="46.16" height="46.16" fill="#617bea"/><polygon points="415.42,46.16 461.58000000000004,46.16 415.42,92.32" fill="#c6f2e4"/><rect x="461.58" y="0" width="92.32" height="92.32" fill="#42d2a5"/><polygon points="461.58,0 553.9,0 553.9,92.32" fill="#30ce9c"/><rect x="553.89" y="0" width="92.32" height="92.32" fill="#bef0e0"/><polygon points="553.89,0 646.21,92.32 553.89,92.32" fill="#78dfbf"/><rect x="646.2049999999999" y="0" width="92.315" height="92.315" fill="#ffffff"/><rect x="646.2" y="0" width="46.16" height="46.16" fill="#abb9f4"/><polygon points="646.2,0 692.36,0 692.36,46.16" fill="#3658e5"/><rect x="692.36" y="0" width="46.16" height="46.16" fill="#f9fefc"/><polygon points="738.52,0 738.52,46.16 692.36,46.16" fill="#36cf9f"/><rect x="646.2" y="46.16" width="46.16" height="46.16" fill="#4bd4a9"/><polygon points="646.2,46.16 692.36,46.16 646.2,92.32" fill="#adecd8"/><rect x="692.36" y="46.16" width="46.16" height="46.16" fill="#52d6ac"/><polygon points="692.36,46.16 738.52,46.16 738.52,92.32" fill="#a6b5f3"/><rect x="738.52" y="0" width="92.315" height="92.315" fill="#ffffff"/><rect x="738.52" y="0" width="46.16" height="46.16" fill="#55d7ae"/><polygon points="738.52,0 784.68,0 784.68,46.16" fill="#c6cff8"/><rect x="784.68" y="0" width="46.16" height="46.16" fill="#63dab5"/><polygon points="830.8399999999999,0 830.8399999999999,46.16 784.68,46.16" fill="#ebfaf5"/><rect x="738.52" y="46.16" width="46.16" height="46.16" fill="#d8f6ec"/><polygon points="784.68,46.16 784.68,92.32 738.52,92.32" fill="#81e1c3"/><rect x="784.68" y="46.16" width="46.16" height="46.16" fill="#57d7ae"/><polygon points="784.68,46.16 830.8399999999999,46.16 830.8399999999999,92.32" fill="#93a5f1"/><rect x="830.84" y="0" width="92.32" height="92.32" fill="#c4cef7"/><polygon points="830.84,0 923.1600000000001,92.32 830.84,92.32" fill="#8fa2f1"/><rect x="923.15" y="0" width="92.315" height="92.315" fill="#ffffff"/><rect x="923.15" y="0" width="46.16" height="46.16" fill="#6680eb"/><polygon points="923.15,0 969.31,0 969.31,46.16" fill="#d8f6ec"/><rect x="969.31" y="0" width="46.16" height="46.16" fill="#7ce0c0"/><polygon points="969.31,0 1015.4699999999999,0 1015.4699999999999,46.16" fill="#f0fbf8"/><rect x="923.15" y="46.16" width="46.16" height="46.16" fill="#9de8d0"/><polygon points="923.15,46.16 969.31,46.16 969.31,92.32" fill="#7c92ee"/><rect x="969.31" y="46.16" width="46.16" height="46.16" fill="#6fddba"/><polygon points="969.31,46.16 1015.4699999999999,92.32 969.31,92.32" fill="#b3eddb"/><rect x="1015.4649999999999" y="0" width="92.315" height="92.315" fill="#ffffff"/><rect x="1015.46" y="0" width="46.16" height="46.16" fill="#fafefc"/><polygon points="1015.46,0 1061.6200000000001,0 1061.6200000000001,46.16" fill="#5370e9"/><rect x="1061.62" y="0" width="46.16" height="46.16" fill="#5f7aea"/><polygon points="1107.78,0 1107.78,46.16 1061.62,46.16" fill="#899df0"/><rect x="1015.46" y="46.16" width="46.16" height="46.16" fill="#8ae3c7"/><polygon points="1061.6200000000001,46.16 1061.6200000000001,92.32 1015.46,92.32" fill="#45d3a6"/><rect x="1061.62" y="46.16" width="46.16" height="46.16" fill="#9dadf2"/><polygon points="1061.62,46.16 1107.78,46.16 1061.62,92.32" fill="#96a8f1"/><rect x="0" y="92.32" width="92.32" height="92.32" fill="#bff0e0"/><polygon points="0,92.32 92.32,92.32 92.32,184.64" fill="#bcc7f6"/><rect x="92.32" y="92.32" width="92.32" height="92.32" fill="#4c6be8"/><polygon points="92.32,92.32 184.64,92.32 92.32,184.64" fill="#98a9f2"/><rect x="184.63" y="92.315" width="92.315" height="92.315" fill="#ffffff"/><rect x="184.63" y="92.32" width="46.16" height="46.16" fill="#d9f6ed"/><polygon points="184.63,92.32 230.79,138.48 184.63,138.48" fill="#8599ef"/><rect x="230.79" y="92.32" width="46.16" height="46.16" fill="#a4b4f3"/><polygon points="230.79,92.32 276.95,92.32 276.95,138.48" fill="#91e5cb"/><rect x="184.63" y="138.47" width="46.16" height="46.16" fill="#294de3"/><polygon points="184.63,138.47 230.79,138.47 230.79,184.63" fill="#3b5ce6"/><rect x="230.79" y="138.47" width="46.16" height="46.16" fill="#7189ed"/><polygon points="276.95,138.47 276.95,184.63 230.79,184.63" fill="#c2f1e2"/><rect x="276.945" y="92.315" width="92.315" height="92.315" fill="#ffffff"/><rect x="276.95" y="92.32" width="46.16" height="46.16" fill="#eaeefc"/><polygon points="276.95,92.32 323.11,138.48 276.95,138.48" fill="#4766e7"/><rect x="323.1" y="92.32" width="46.16" height="46.16" fill="#ecfaf6"/><polygon points="323.1,92.32 369.26,138.48 323.1,138.48" fill="#3355e4"/><rect x="276.95" y="138.47" width="46.16" height="46.16" fill="#d6f5eb"/><polygon points="276.95,138.47 323.11,138.47 323.11,184.63" fill="#ebfaf5"/><rect x="323.1" y="138.47" width="46.16" height="46.16" fill="#395ae5"/><polygon points="323.1,138.47 369.26,184.63 323.1,184.63" fill="#e1f8f1"/><rect x="369.26" y="92.32" width="92.32" height="92.32" fill="#d5dcfa"/><polygon points="461.58,92.32 461.58,184.64 369.26,184.64" fill="#758ced"/><rect x="461.58" y="92.32" width="92.32" height="92.32" fill="#5b77ea"/><polygon points="553.9,92.32 553.9,184.64 461.58,184.64" fill="#a8b6f4"/><rect x="553.89" y="92.315" width="92.315" height="92.315" fill="#ffffff"/><rect x="553.89" y="92.32" width="46.16" height="46.16" fill="#f3f5fd"/><polygon points="553.89,92.32 600.05,92.32 600.05,138.48" fill="#1b42e1"/><rect x="600.05" y="92.32" width="46.16" height="46.16" fill="#58d8af"/><polygon points="600.05,92.32 646.2099999999999,138.48 600.05,138.48" fill="#1f44e2"/><rect x="553.89" y="138.47" width="46.16" height="46.16" fill="#b5eddb"/><polygon points="553.89,138.47 600.05,138.47 600.05,184.63" fill="#dbe1fa"/><rect x="600.05" y="138.47" width="46.16" height="46.16" fill="#f5f7fe"/><polygon points="646.2099999999999,138.47 646.2099999999999,184.63 600.05,184.63" fill="#aaebd6"/><rect x="646.2" y="92.32" width="92.32" height="92.32" fill="#2ecd9b"/><polygon points="738.52,92.32 738.52,184.64 646.2,184.64" fill="#b5eedc"/><rect x="738.52" y="92.32" width="92.32" height="92.32" fill="#e4f9f2"/><polygon points="738.52,92.32 830.8399999999999,184.64 738.52,184.64" fill="#c1ccf7"/><rect x="830.835" y="92.315" width="92.315" height="92.315" fill="#ffffff"/><rect x="830.84" y="92.32" width="46.16" height="46.16" fill="#e8ecfc"/><polygon points="830.84,92.32 877,92.32 877,138.48" fill="#899df0"/><rect x="876.99" y="92.32" width="46.16" height="46.16" fill="#b9eedd"/><polygon points="923.15,92.32 923.15,138.48 876.99,138.48" fill="#d4f5ea"/><rect x="830.84" y="138.47" width="46.16" height="46.16" fill="#a1e9d2"/><polygon points="877,138.47 877,184.63 830.84,184.63" fill="#3254e4"/><rect x="876.99" y="138.47" width="46.16" height="46.16" fill="#2e52e4"/><polygon points="876.99,138.47 923.15,138.47 876.99,184.63" fill="#c8d1f8"/><rect x="923.15" y="92.315" width="92.315" height="92.315" fill="#ffffff"/><rect x="923.15" y="92.32" width="46.16" height="46.16" fill="#3d5ee6"/><polygon points="923.15,92.32 969.31,92.32 969.31,138.48" fill="#3ed1a3"/><rect x="969.31" y="92.32" width="46.16" height="46.16" fill="#284ce3"/><polygon points="1015.4699999999999,92.32 1015.4699999999999,138.48 969.31,138.48" fill="#4fd5ab"/><rect x="923.15" y="138.47" width="46.16" height="46.16" fill="#7d93ee"/><polygon points="923.15,138.47 969.31,184.63 923.15,184.63" fill="#6f87ec"/><rect x="969.31" y="138.47" width="46.16" height="46.16" fill="#8de4c8"/><polygon points="1015.4699999999999,138.47 1015.4699999999999,184.63 969.31,184.63" fill="#cff4e8"/><rect x="1015.46" y="92.32" width="92.32" height="92.32" fill="#61dab4"/><polygon points="1107.78,92.32 1107.78,184.64 1015.46,184.64" fill="#93e5cb"/><rect x="0" y="184.63" width="92.32" height="92.32" fill="#71ddbb"/><polygon points="0,184.63 92.32,184.63 92.32,276.95" fill="#42d2a5"/><rect x="92.315" y="184.63" width="92.315" height="92.315" fill="#ffffff"/><rect x="92.32" y="184.63" width="46.16" height="46.16" fill="#90e5ca"/><polygon points="92.32,184.63 138.48,184.63 92.32,230.79" fill="#baefde"/><rect x="138.47" y="184.63" width="46.16" height="46.16" fill="#66dbb6"/><polygon points="138.47,184.63 184.63,230.79 138.47,230.79" fill="#62dab4"/><rect x="92.32" y="230.79" width="46.16" height="46.16" fill="#e9edfc"/><polygon points="92.32,230.79 138.48,230.79 138.48,276.95" fill="#2247e2"/><rect x="138.47" y="230.79" width="46.16" height="46.16" fill="#bbefdf"/><polygon points="184.63,230.79 184.63,276.95 138.47,276.95" fill="#daf6ed"/><rect x="184.63" y="184.63" width="92.315" height="92.315" fill="#ffffff"/><rect x="184.63" y="184.63" width="46.16" height="46.16" fill="#91e5ca"/><polygon points="184.63,184.63 230.79,184.63 230.79,230.79" fill="#ecfaf6"/><rect x="230.79" y="184.63" width="46.16" height="46.16" fill="#a6ead5"/><polygon points="230.79,184.63 276.95,184.63 230.79,230.79" fill="#f1f3fd"/><rect x="184.63" y="230.79" width="46.16" height="46.16" fill="#99aaf2"/><polygon points="184.63,230.79 230.79,276.95 184.63,276.95" fill="#50d6ab"/><rect x="230.79" y="230.79" width="46.16" height="46.16" fill="#92e5cb"/><polygon points="230.79,230.79 276.95,230.79 276.95,276.95" fill="#ecfbf6"/><rect x="276.95" y="184.63" width="92.32" height="92.32" fill="#284ce3"/><polygon points="276.95,184.63 369.27,184.63 276.95,276.95" fill="#5672e9"/><rect x="369.26" y="184.63" width="92.32" height="92.32" fill="#c3cdf7"/><polygon points="369.26,184.63 461.58,184.63 369.26,276.95" fill="#5874e9"/><rect x="461.575" y="184.63" width="92.315" height="92.315" fill="#ffffff"/><rect x="461.58" y="184.63" width="46.16" height="46.16" fill="#38d0a0"/><polygon points="461.58,184.63 507.74,184.63 461.58,230.79" fill="#5cd8b1"/><rect x="507.73" y="184.63" width="46.16" height="46.16" fill="#82e1c3"/><polygon points="507.73,184.63 553.89,184.63 553.89,230.79" fill="#5c77ea"/><rect x="461.58" y="230.79" width="46.16" height="46.16" fill="#98aaf2"/><polygon points="507.74,230.79 507.74,276.95 461.58,276.95" fill="#d8dffa"/><rect x="507.73" y="230.79" width="46.16" height="46.16" fill="#5b76ea"/><polygon points="507.73,230.79 553.89,276.95 507.73,276.95" fill="#eaedfc"/><rect x="553.89" y="184.63" width="92.32" height="92.32" fill="#3d5de6"/><polygon points="553.89,184.63 646.21,184.63 646.21,276.95" fill="#5975e9"/><rect x="646.2" y="184.63" width="92.32" height="92.32" fill="#3758e5"/><polygon points="738.52,184.63 738.52,276.95 646.2,276.95" fill="#4fd5ab"/><rect x="738.52" y="184.63" width="92.315" height="92.315" fill="#ffffff"/><rect x="738.52" y="184.63" width="46.16" height="46.16" fill="#d1d9f9"/><polygon points="784.68,184.63 784.68,230.79 738.52,230.79" fill="#4d6be8"/><rect x="784.68" y="184.63" width="46.16" height="46.16" fill="#647eeb"/><polygon points="784.68,184.63 830.8399999999999,184.63 784.68,230.79" fill="#fafefc"/><rect x="738.52" y="230.79" width="46.16" height="46.16" fill="#86e2c5"/><polygon points="738.52,230.79 784.68,230.79 784.68,276.95" fill="#d7f6ec"/><rect x="784.68" y="230.79" width="46.16" height="46.16" fill="#bec9f7"/><polygon points="784.68,230.79 830.8399999999999,276.95 784.68,276.95" fill="#6e86ec"/><rect x="830.84" y="184.63" width="92.32" height="92.32" fill="#5ad8b0"/><polygon points="830.84,184.63 923.1600000000001,276.95 830.84,276.95" fill="#58d7af"/><rect x="923.15" y="184.63" width="92.315" height="92.315" fill="#ffffff"/><rect x="923.15" y="184.63" width="46.16" height="46.16" fill="#4463e7"/><polygon points="923.15,184.63 969.31,230.79 923.15,230.79" fill="#b6eedc"/><rect x="969.31" y="184.63" width="46.16" height="46.16" fill="#2ccd9a"/><polygon points="1015.4699999999999,184.63 1015.4699999999999,230.79 969.31,230.79" fill="#2348e2"/><rect x="923.15" y="230.79" width="46.16" height="46.16" fill="#f8fdfb"/><polygon points="969.31,230.79 969.31,276.95 923.15,276.95" fill="#b0bdf5"/><rect x="969.31" y="230.79" width="46.16" height="46.16" fill="#d7ddfa"/><polygon points="969.31,230.79 1015.4699999999999,230.79 1015.4699999999999,276.95" fill="#4363e7"/><rect x="1015.4649999999999" y="184.63" width="92.315" height="92.315" fill="#ffffff"/><rect x="1015.46" y="184.63" width="46.16" height="46.16" fill="#7b91ee"/><polygon points="1015.46,184.63 1061.6200000000001,184.63 1061.6200000000001,230.79" fill="#2b4fe3"/><rect x="1061.62" y="184.63" width="46.16" height="46.16" fill="#cff4e8"/><polygon points="1061.62,184.63 1107.78,184.63 1061.62,230.79" fill="#ebeefc"/><rect x="1015.46" y="230.79" width="46.16" height="46.16" fill="#8ce4c8"/><polygon points="1015.46,230.79 1061.6200000000001,276.95 1015.46,276.95" fill="#6e87ec"/><rect x="1061.62" y="230.79" width="46.16" height="46.16" fill="#5b77ea"/><polygon points="1061.62,230.79 1107.78,230.79 1107.78,276.95" fill="#c8f2e5"/></g></svg>